<svg xmlns="http://www.w3.org/2000/svg" version="1.1" xmlns:xlink="http://www.w3.org/1999/xlink" xmlns:svgjs="http://svgjs.dev/svgjs" width="2000" height="550" viewBox="0 0 2000 550"><g transform="matrix(1,0,0,1,-1.2121212121212466,-2.327598499636906)"><svg viewBox="0 0 396 109" data-background-color="#000000" preserveAspectRatio="xMidYMid meet" height="550" width="2000" xmlns="http://www.w3.org/2000/svg" xmlns:xlink="http://www.w3.org/1999/xlink"><g id="tight-bounds" transform="matrix(1,0,0,1,0.2400000000000091,0.46128770265531216)"><svg viewBox="0 0 395.52 108.07742459468936" height="108.07742459468936" width="395.52"><g><svg viewBox="0 0 395.52 108.07742459468936" height="108.07742459468936" width="395.52"><g><svg viewBox="0 0 395.52 108.07742459468936" height="108.07742459468936" width="395.52"><g id="textblocktransform"><svg viewBox="0 0 395.52 108.07742459468936" height="108.07742459468936" width="395.52" id="textblock"><g><svg viewBox="0 0 395.52 70.71620616798039" height="70.71620616798039" width="395.52"><g transform="matrix(1,0,0,1,0,0)"><svg width="395.52" viewBox="1.46 -35.94 204.41058001352056 36.55" height="70.71620616798039" data-palette-color="#8ecae6"><g transform="matrix(1,0,0,1,0,0)"><g><svg width="15.35011649131775" viewBox="3.16 -36.36 65.07000000000001 36.36" height="8.57763671875" data-palette-color="#8ecae6" id="scriptelement" x="190.52046352220282" y="-8.57763671875"><path d="M18.7 0L3.16 0 3.16-36.36 17.72-36.36Q21.73-36.36 24.41-35.17 27.1-33.98 28.44-31.88 29.79-29.78 29.79-27.04L29.79-27.04Q29.79-24.91 28.94-23.3 28.09-21.7 26.61-20.68 25.12-19.66 23.22-19.23L23.22-19.23 23.22-18.87Q25.3-18.79 27.12-17.7 28.94-16.62 30.08-14.68 31.21-12.73 31.21-10.05L31.21-10.05Q31.21-7.16 29.79-4.89 28.36-2.63 25.57-1.31 22.78 0 18.7 0L18.7 0ZM10.85-15.94L10.85-6.29 17.12-6.29Q20.33-6.29 21.8-7.52 23.28-8.75 23.28-10.81L23.28-10.81Q23.28-12.32 22.55-13.48 21.82-14.63 20.48-15.29 19.14-15.94 17.29-15.94L17.29-15.94 10.85-15.94ZM10.85-30.15L10.85-21.15 16.55-21.15Q18.13-21.15 19.36-21.71 20.6-22.27 21.32-23.3 22.03-24.33 22.03-25.76L22.03-25.76Q22.03-27.73 20.64-28.94 19.25-30.15 16.69-30.15L16.69-30.15 10.85-30.15ZM47.33-12.86L34.07-36.36 42.68-36.36 50.97-20.7 51.33-20.7 59.62-36.36 68.23-36.36 54.97-12.86 54.97 0 47.33 0 47.33-12.86Z" opacity="1" transform="matrix(1,0,0,1,0,0)" fill="#8ecae6" class="undefined-123" data-fill-palette-color="primary" id="tk-123"></path></svg></g></g><path d="M9.18-2.27L9.18-2.27Q8.13-4.25 7.03-7.29 5.93-10.33 4.93-13.82 3.93-17.31 3.15-20.72 2.37-24.12 1.92-26.9 1.46-29.69 1.46-31.25L1.46-31.25Q1.46-31.88 1.73-32.25L1.73-32.25Q2.29-33.03 3.11-33.87 3.93-34.72 5.05-35.64L5.05-35.64Q5.42-35.94 5.74-35.94L5.74-35.94Q6.05-35.94 6.37-35.64L6.37-35.64Q7.52-34.72 8.33-33.87 9.13-33.03 9.69-32.25L9.69-32.25Q9.96-31.88 9.96-31.18L9.96-31.18 9.96-31.27Q9.96-29.66 10.39-26.92 10.82-24.17 11.51-20.91 12.21-17.65 13.02-14.49 13.84-11.33 14.65-8.86L14.65-8.86 14.79-8.86Q16.11-12.13 17.26-15.97 18.41-19.8 19.41-23.8 20.41-27.81 21.29-31.59L21.29-31.59Q21.56-32.69 22.2-33.12 22.85-33.54 24.24-33.54L24.24-33.54 27.17-33.54Q28.42-33.54 29.03-33.18 29.64-32.81 29.91-31.59L29.91-31.59Q30.54-28.76 31.35-25.61 32.15-22.46 33.02-19.35 33.89-16.24 34.78-13.53 35.67-10.82 36.47-8.86L36.47-8.86 36.62-8.86Q37.65-11.18 38.46-14.33 39.28-17.48 39.86-20.76 40.43-24.05 40.73-26.86 41.04-29.66 41.04-31.27L41.04-31.27 41.04-31.18Q41.04-31.88 41.28-32.25L41.28-32.25Q42.46-33.86 44.51-35.64L44.51-35.64Q44.9-35.94 45.19-35.94L45.19-35.94Q45.46-35.94 45.83-35.64L45.83-35.64Q46.92-34.72 47.71-33.87 48.49-33.03 49.05-32.25L49.05-32.25Q49.29-31.86 49.29-31.2L49.29-31.2Q49.29-29.15 48.83-26.27 48.36-23.39 47.57-20.13 46.78-16.87 45.79-13.62 44.8-10.38 43.71-7.56 42.63-4.74 41.58-2.78L41.58-2.78Q40.7-1.15 40-0.57 39.31 0 38.01 0L38.01 0 35.01 0Q33.91 0 33.17-0.49 32.42-0.98 31.62-2.32L31.62-2.32Q31.01-3.34 30.21-5.2 29.42-7.06 28.63-9.24 27.83-11.43 27.2-13.48 26.56-15.53 26.27-16.94L26.27-16.94Q25.93-18.55 25.7-20.06 25.46-21.56 25.42-22.41L25.42-22.41 25.22-22.41Q25.17-21.56 24.91-20.06 24.66-18.55 24.29-16.94L24.29-16.94Q23.93-15.33 23.32-13.26 22.71-11.18 21.97-9.08 21.24-6.98 20.51-5.2 19.78-3.42 19.14-2.37L19.14-2.37Q18.43-1.17 17.59-0.59 16.75 0 15.26 0L15.26 0 12.5 0Q11.21 0 10.55-0.46 9.89-0.93 9.18-2.27ZM49.29-31.27L49.29-31.27 49.29-31.18 49.29-31.2Q49.29-31.25 49.29-31.27ZM1.46-31.18L1.46-31.27 1.46-31.25 1.46-31.18ZM66.31 0.61L66.31 0.61Q62.18 0.61 59.13-0.72 56.08-2.05 54.39-4.86 52.71-7.67 52.71-12.11L52.71-12.11Q52.71-18.77 56.13-22.19 59.54-25.61 65.21-25.61L65.21-25.61Q68.89-25.61 71.45-24.29 74-22.97 75.33-20.65 76.66-18.33 76.66-15.36L76.66-15.36Q76.66-12.45 75.17-11.3 73.68-10.16 70.82-10.16L70.82-10.16 60.35-10.16Q60.54-7.64 62.19-6.32 63.84-5 66.67-5L66.67-5Q68.92-5 70.27-5.68 71.63-6.35 72.17-6.74L72.17-6.74Q72.63-7.08 73.22-7.06L73.22-7.06Q73.68-7.06 74.55-6.87 75.41-6.69 76.27-6.2L76.27-6.2Q76.88-5.88 76.88-5.32L76.88-5.32Q76.88-5 76.76-4.42L76.76-4.42Q76.68-4.08 76.51-3.43 76.34-2.78 76.07-2.22L76.07-2.22Q75.93-1.95 75.61-1.71L75.61-1.71Q75.12-1.37 74.03-0.81 72.95-0.24 71.07 0.18 69.19 0.61 66.31 0.61ZM60.3-15.16L60.3-15.16 68.26-15.16Q69.5-15.16 69.5-16.31L69.5-16.31Q69.5-18.04 68.42-19.23 67.33-20.41 65.16-20.41L65.16-20.41Q62.79-20.41 61.68-18.9 60.57-17.38 60.3-15.16ZM95.89-11.69L95.89-11.69Q95.26-11.69 94.82-12.01L94.82-12.01Q94.36-12.33 93.72-12.92 93.09-13.5 92.3-14.36L92.3-14.36Q92.01-14.7 92.01-14.97L92.01-14.97Q92.01-15.23 92.3-15.58L92.3-15.58Q93.82-17.29 95.06-18.09L95.06-18.09Q95.36-18.29 95.89-18.29L95.89-18.29Q97.55-18.29 98.76-19.53 99.97-20.78 99.92-23.56L99.92-23.56Q99.9-26.56 98.44-27.76 96.99-28.96 94.48-28.96L94.48-28.96 93.31-28.96Q91.69-28.96 91.11-28.27 90.52-27.59 90.52-25.93L90.52-25.93 90.52-1.29Q90.52-0.56 90.22-0.28 89.91 0 89.18 0L89.18 0 83.98 0Q83.25 0 82.94-0.28 82.64-0.56 82.64-1.29L82.64-1.29 82.64-28.47Q82.64-30.91 83.09-32.34 83.54-33.76 84.85-34.39 86.15-35.01 88.67-35.01L88.67-35.01 94.48-35.01Q101.48-35.01 104.85-32.26 108.22-29.52 108.22-23.85L108.22-23.85Q108.22-19.6 106.45-16.92 104.68-14.23 101.86-12.96 99.04-11.69 95.89-11.69ZM124.97 0.61L124.97 0.61Q118.82 0.61 115.23-2.66 111.64-5.93 111.64-12.4L111.64-12.4Q111.64-19.04 115.36-22.33 119.08-25.61 125.31-25.61L125.31-25.61Q131.32-25.61 134.93-22.38 138.54-19.14 138.54-12.84L138.54-12.84Q138.54-6.27 134.93-2.83 131.32 0.61 124.97 0.61ZM125.21-5.3L125.21-5.3Q127.9-5.3 129.26-6.97 130.63-8.64 130.63-12.7L130.63-12.7Q130.63-16.55 129.25-18.13 127.87-19.7 125.16-19.7L125.16-19.7Q122.55-19.7 121.05-18.01 119.55-16.31 119.55-12.5L119.55-12.5Q119.55-8.52 120.98-6.91 122.4-5.3 125.21-5.3ZM150.75 0.61L150.75 0.61Q148.13 0.61 146.41 0.17 144.69-0.27 143.65-0.89 142.62-1.51 142.03-2.03L142.03-2.03Q141.59-2.44 141.93-2.95L141.93-2.95 144.42-6.64Q144.96-7.42 145.64-6.74L145.64-6.74Q146.35-6.05 147.56-5.41 148.77-4.76 150.58-4.76L150.58-4.76Q152.19-4.76 153.22-5.31 154.26-5.86 154.26-6.91L154.26-6.91Q154.26-7.64 153.8-8.11 153.33-8.57 152.16-9.06 150.99-9.55 148.89-10.3L148.89-10.3Q145.79-11.43 144.2-13.01 142.62-14.6 142.62-17.65L142.62-17.65Q142.62-20.46 144.17-22.22 145.72-23.97 148.15-24.79 150.58-25.61 153.21-25.61L153.21-25.61Q156.56-25.61 157.91-24.99 159.27-24.37 159.66-24.02L159.66-24.02Q160.02-23.71 160.17-23.29L160.17-23.29Q160.49-22.34 160.66-20.78L160.66-20.78Q160.76-19.87 160.2-19.58L160.2-19.58Q159.9-19.41 159.27-19.21 158.63-19.02 158-18.87 157.36-18.73 157.05-18.73L157.05-18.73Q156.95-18.73 156.84-18.79 156.73-18.85 156.46-19.09L156.46-19.09Q156.14-19.41 155.37-19.82 154.6-20.24 153.26-20.24L153.26-20.24Q151.94-20.24 151.05-19.81 150.16-19.38 150.16-18.31L150.16-18.31Q150.16-17.14 151.3-16.55 152.43-15.97 155.04-15.04L155.04-15.04Q157.09-14.33 158.62-13.49 160.15-12.65 160.98-11.29 161.81-9.94 161.81-7.64L161.81-7.64Q161.81-4.66 160.18-2.84 158.56-1.03 156.03-0.21 153.51 0.61 150.75 0.61ZM176.45 0.61L176.45 0.61Q168.3 0.61 168.3-7.86L168.3-7.86 168.3-19.31 165.54-19.31Q164.81-19.31 164.53-19.62 164.25-19.92 164.25-20.65L164.25-20.65 164.25-23.66Q164.25-24.39 164.53-24.69 164.81-25 165.54-25L165.54-25 168.3-25 168.3-28.93Q168.3-29.52 168.54-29.83L168.54-29.83Q169.57-31.18 171.55-32.74L171.55-32.74Q171.89-32.98 172.16-32.98L172.16-32.98Q172.45-32.98 172.74-32.74L172.74-32.74Q173.79-31.93 174.51-31.23 175.23-30.52 175.74-29.83L175.74-29.83Q175.99-29.52 175.99-28.93L175.99-28.93 175.99-25 180.31-25Q181.04-25 181.32-24.69 181.6-24.39 181.6-23.66L181.6-23.66 181.6-20.65Q181.6-19.92 181.32-19.62 181.04-19.31 180.31-19.31L180.31-19.31 175.99-19.31 175.99-9.2Q175.99-5.3 178.82-5.3L178.82-5.3Q179.26-5.3 179.63-5.38 179.99-5.47 180.26-5.57L180.26-5.57Q180.77-5.76 180.98-5.71 181.19-5.66 181.36-5.18L181.36-5.18 182.78-1.39Q183-0.78 182.48-0.51L182.48-0.51Q182.12-0.34 180.71 0.13 179.31 0.61 176.45 0.61Z" opacity="1" transform="matrix(1,0,0,1,0,0)" fill="#8ecae6" class="wordmark-text-0" data-fill-palette-color="primary" id="text-0"></path></svg></g></svg></g><g transform="matrix(1,0,0,1,148.06697544839267,87.41060525529252)"><svg viewBox="0 0 202.90176 20.666819339396838" height="20.666819339396838" width="202.90176"><g transform="matrix(1,0,0,1,0,0)"><svg width="202.90176" viewBox="3.91 -35.01 458.96999999999997 46.75" height="20.666819339396838" data-palette-color="#219ebc"><path d="M17.16-11.69L17.16-11.69Q16.53-11.69 16.09-12.01L16.09-12.01Q15.63-12.33 14.99-12.92 14.36-13.5 13.57-14.36L13.57-14.36Q13.28-14.7 13.28-14.97L13.28-14.97Q13.28-15.23 13.57-15.58L13.57-15.58Q15.09-17.29 16.33-18.09L16.33-18.09Q16.63-18.29 17.16-18.29L17.16-18.29Q18.82-18.29 20.03-19.53 21.24-20.78 21.19-23.56L21.19-23.56Q21.17-26.56 19.71-27.76 18.26-28.96 15.75-28.96L15.75-28.96 14.58-28.96Q12.96-28.96 12.38-28.27 11.79-27.59 11.79-25.93L11.79-25.93 11.79-1.29Q11.79-0.56 11.49-0.28 11.18 0 10.45 0L10.45 0 5.25 0Q4.52 0 4.21-0.28 3.91-0.56 3.91-1.29L3.91-1.29 3.91-28.47Q3.91-30.91 4.36-32.34 4.81-33.76 6.12-34.39 7.42-35.01 9.94-35.01L9.94-35.01 15.75-35.01Q22.75-35.01 26.12-32.26 29.49-29.52 29.49-23.85L29.49-23.85Q29.49-19.6 27.72-16.92 25.95-14.23 23.13-12.96 20.31-11.69 17.16-11.69ZM41.97-22.17L41.97-20.36 42.06-20.36Q43.89-25.44 48.65-25.44L48.65-25.44Q49.27-25.44 49.66-25.38 50.05-25.32 50.19-25.27L50.19-25.27Q50.56-25.15 50.56-24.71L50.56-24.71 50.56-18.82Q50.56-18.07 49.68-18.41L49.68-18.41Q49.39-18.53 48.84-18.66 48.29-18.8 47.31-18.8L47.31-18.8Q44.8-18.8 43.38-16.96 41.97-15.11 41.97-11.94L41.97-11.94 41.97-1.29Q41.97-0.56 41.66-0.28 41.35 0 40.62 0L40.62 0 35.59 0Q34.86 0 34.56-0.28 34.25-0.56 34.25-1.29L34.25-1.29 34.25-21.75Q34.25-22.34 34.49-22.66L34.49-22.66Q35.01-23.34 35.73-24.05 36.45-24.76 37.5-25.56L37.5-25.56Q37.69-25.71 37.89-25.76 38.08-25.81 38.23-25.81L38.23-25.81Q38.57-25.81 38.91-25.56L38.91-25.56Q40.94-23.97 41.75-22.85L41.75-22.85Q41.97-22.56 41.97-22.17L41.97-22.17ZM66.18 0.61L66.18 0.61Q60.03 0.61 56.44-2.66 52.85-5.93 52.85-12.4L52.85-12.4Q52.85-19.04 56.57-22.33 60.3-25.61 66.52-25.61L66.52-25.61Q72.53-25.61 76.14-22.38 79.76-19.14 79.76-12.84L79.76-12.84Q79.76-6.27 76.14-2.83 72.53 0.61 66.18 0.61ZM66.43-5.3L66.43-5.3Q69.11-5.3 70.48-6.97 71.85-8.64 71.85-12.7L71.85-12.7Q71.85-16.55 70.47-18.13 69.09-19.7 66.38-19.7L66.38-19.7Q63.76-19.7 62.26-18.01 60.76-16.31 60.76-12.5L60.76-12.5Q60.76-8.52 62.19-6.91 63.62-5.3 66.43-5.3ZM109.17-22.66L109.17-22.66 109.17-2.86Q109.17 4.27 105.11 8.01 101.04 11.74 93.96 11.74L93.96 11.74Q91.03 11.74 89.32 11.32 87.61 10.89 86.74 10.5L86.74 10.5Q86.17 10.23 86 9.94L86 9.94Q85.76 9.55 85.45 8.79 85.15 8.03 84.88 7.13L84.88 7.13Q84.81 6.79 84.86 6.62L84.86 6.62Q84.95 6.37 85.22 6.1L85.22 6.1Q85.66 5.66 86.48 5.08 87.3 4.49 87.74 4.32L87.74 4.32Q88.2 4.15 88.59 4.37L88.59 4.37Q89.23 4.71 90.41 5.14 91.59 5.57 93.74 5.57L93.74 5.57Q97.16 5.57 99.31 3.81 101.46 2.05 101.46-1.61L101.46-1.61 101.46-2.49 101.36-2.49Q100.82-1.81 99.97-1.1 99.11-0.39 97.76 0.1 96.4 0.59 94.28 0.59L94.28 0.59Q90.59 0.59 88.24-1.01 85.88-2.61 84.77-5.42 83.66-8.23 83.66-11.82L83.66-11.82Q83.66-15.75 84.95-18.87 86.25-22 89.3-23.82 92.35-25.63 97.65-25.63L97.65-25.63Q100.82-25.63 102.98-25.17 105.14-24.71 106.61-24.02 108.07-23.34 109.17-22.66ZM97.38-19.73L97.38-19.73Q94.55-19.73 93.06-17.82 91.57-15.92 91.57-11.91L91.57-11.91Q91.57-5.64 96.75-5.64L96.75-5.64Q98.77-5.64 99.85-6.47 100.92-7.3 101.46-8.57L101.46-8.57 101.46-18.65Q100.92-19.04 99.94-19.38 98.97-19.73 97.38-19.73ZM123.48-22.17L123.48-20.36 123.57-20.36Q125.41-25.44 130.17-25.44L130.17-25.44Q130.78-25.44 131.17-25.38 131.56-25.32 131.7-25.27L131.7-25.27Q132.07-25.15 132.07-24.71L132.07-24.71 132.07-18.82Q132.07-18.07 131.19-18.41L131.19-18.41Q130.9-18.53 130.35-18.66 129.8-18.8 128.82-18.8L128.82-18.8Q126.31-18.8 124.89-16.96 123.48-15.11 123.48-11.94L123.48-11.94 123.48-1.29Q123.48-0.56 123.17-0.28 122.87 0 122.13 0L122.13 0 117.1 0Q116.37 0 116.07-0.28 115.76-0.56 115.76-1.29L115.76-1.29 115.76-21.75Q115.76-22.34 116.01-22.66L116.01-22.66Q116.52-23.34 117.24-24.05 117.96-24.76 119.01-25.56L119.01-25.56Q119.2-25.71 119.4-25.76 119.59-25.81 119.74-25.81L119.74-25.81Q120.08-25.81 120.42-25.56L120.42-25.56Q122.45-23.97 123.26-22.85L123.26-22.85Q123.48-22.56 123.48-22.17L123.48-22.17ZM142.18 0.61L142.18 0.61Q138.59 0.61 136.47-1.4 134.36-3.42 134.36-6.96L134.36-6.96Q134.36-8.79 135.03-10.36 135.71-11.94 137.38-13.15 139.05-14.36 142.07-15.09 145.08-15.82 149.77-15.94L149.77-15.94Q149.77-18.16 148.66-19.14 147.55-20.12 145.32-20.12L145.32-20.12Q143.32-20.12 142.05-19.43 140.78-18.75 140.47-18.51L140.47-18.51Q140.12-18.21 139.64-18.29L139.64-18.29Q138.98-18.38 138.23-18.63 137.49-18.87 136.63-19.19L136.63-19.19Q136.51-19.24 136.36-19.35 136.22-19.46 136.19-19.68L136.19-19.68Q136.19-19.8 136.22-19.98 136.24-20.17 136.34-20.65L136.34-20.65Q136.44-21.14 136.63-21.86 136.83-22.58 137-22.97L137-22.97Q137.22-23.39 137.73-23.75L137.73-23.75Q138.15-24.1 140.25-24.85 142.35-25.61 146.33-25.61L146.33-25.61Q157.29-25.61 157.29-14.94L157.29-14.94 157.29-1.12Q157.29-0.66 157.03-0.33 156.77 0 156.16 0L156.16 0 152.5 0Q152.11 0 151.81-0.11 151.5-0.22 151.23-0.54L151.23-0.54 149.72-2.49 149.55-2.49Q148.43-0.85 146.53-0.12 144.64 0.61 142.18 0.61ZM144.86-5.05L144.86-5.05Q147.11-5.05 148.25-6.2 149.4-7.35 149.72-8.57L149.72-8.57 149.72-11.28Q146.33-11.28 144.63-10.75 142.93-10.23 142.37-9.39 141.81-8.54 141.81-7.57L141.81-7.57Q141.81-6.15 142.69-5.6 143.57-5.05 144.86-5.05ZM186.24-22.44L186.24-22.44Q187.14-23.54 189.04-24.57 190.93-25.61 194.37-25.61L194.37-25.61Q199.25-25.61 201.43-23.1 203.6-20.58 203.6-15.55L203.6-15.55 203.6-1.29Q203.6-0.56 203.29-0.28 202.99 0 202.26 0L202.26 0 197.23 0Q196.49 0 196.19-0.28 195.88-0.56 195.88-1.29L195.88-1.29 195.88-14.28Q195.88-17.02 194.88-18.2 193.88-19.38 191.88-19.38L191.88-19.38Q190.1-19.38 189.06-18.59 188.02-17.8 187.58-16.46L187.58-16.46 187.58-1.29Q187.58-0.56 187.28-0.28 186.97 0 186.24 0L186.24 0 181.21 0Q180.48 0 180.17-0.28 179.87-0.56 179.87-1.29L179.87-1.29 179.87-14.28Q179.87-16.94 178.77-18.16 177.67-19.38 175.89-19.38L175.89-19.38Q174.2-19.38 173.18-18.55 172.15-17.72 171.59-16.46L171.59-16.46 171.59-1.29Q171.59-0.56 171.29-0.28 170.98 0 170.25 0L170.25 0 165.22 0Q164.49 0 164.18-0.28 163.88-0.56 163.88-1.29L163.88-1.29 163.88-21.75Q163.88-22.34 164.12-22.66L164.12-22.66Q164.63-23.34 165.35-24.05 166.07-24.76 167.12-25.56L167.12-25.56Q167.44-25.81 167.73-25.81L167.73-25.81Q168-25.81 168.34-25.56L168.34-25.56Q169.37-24.76 170.1-24.02 170.83-23.29 171.4-22.51L171.4-22.51 171.52-22.51Q172.35-23.56 174.11-24.58 175.86-25.61 179.14-25.61L179.14-25.61Q182.26-25.61 183.77-24.67 185.29-23.73 186.24-22.44ZM232.55-22.44L232.55-22.44Q233.45-23.54 235.35-24.57 237.24-25.61 240.68-25.61L240.68-25.61Q245.56-25.61 247.74-23.1 249.91-20.58 249.91-15.55L249.91-15.55 249.91-1.29Q249.91-0.56 249.6-0.28 249.3 0 248.57 0L248.57 0 243.54 0Q242.8 0 242.5-0.28 242.19-0.56 242.19-1.29L242.19-1.29 242.19-14.28Q242.19-17.02 241.19-18.2 240.19-19.38 238.19-19.38L238.19-19.38Q236.41-19.38 235.37-18.59 234.33-17.8 233.89-16.46L233.89-16.46 233.89-1.29Q233.89-0.56 233.59-0.28 233.28 0 232.55 0L232.55 0 227.52 0Q226.79 0 226.48-0.28 226.18-0.56 226.18-1.29L226.18-1.29 226.18-14.28Q226.18-16.94 225.08-18.16 223.98-19.38 222.2-19.38L222.2-19.38Q220.51-19.38 219.49-18.55 218.46-17.72 217.9-16.46L217.9-16.46 217.9-1.29Q217.9-0.56 217.6-0.28 217.29 0 216.56 0L216.56 0 211.53 0Q210.8 0 210.49-0.28 210.19-0.56 210.19-1.29L210.19-1.29 210.19-21.75Q210.19-22.34 210.43-22.66L210.43-22.66Q210.94-23.34 211.66-24.05 212.38-24.76 213.43-25.56L213.43-25.56Q213.75-25.81 214.05-25.81L214.05-25.81Q214.31-25.81 214.66-25.56L214.66-25.56Q215.68-24.76 216.41-24.02 217.15-23.29 217.71-22.51L217.71-22.51 217.83-22.51Q218.66-23.56 220.42-24.58 222.17-25.61 225.45-25.61L225.45-25.61Q228.57-25.61 230.09-24.67 231.6-23.73 232.55-22.44ZM268.75 0.61L268.75 0.61Q264.63 0.61 261.58-0.72 258.52-2.05 256.84-4.86 255.16-7.67 255.16-12.11L255.16-12.11Q255.16-18.77 258.57-22.19 261.99-25.61 267.66-25.61L267.66-25.61Q271.34-25.61 273.89-24.29 276.44-22.97 277.78-20.65 279.11-18.33 279.11-15.36L279.11-15.36Q279.11-12.45 277.62-11.3 276.13-10.16 273.27-10.16L273.27-10.16 262.8-10.16Q262.99-7.64 264.64-6.32 266.29-5 269.12-5L269.12-5Q271.37-5 272.72-5.68 274.08-6.35 274.61-6.74L274.61-6.74Q275.08-7.08 275.66-7.06L275.66-7.06Q276.13-7.06 276.99-6.87 277.86-6.69 278.72-6.2L278.72-6.2Q279.33-5.88 279.33-5.32L279.33-5.32Q279.33-5 279.2-4.42L279.2-4.42Q279.13-4.08 278.96-3.43 278.79-2.78 278.52-2.22L278.52-2.22Q278.37-1.95 278.06-1.71L278.06-1.71Q277.57-1.37 276.48-0.81 275.4-0.24 273.52 0.18 271.64 0.61 268.75 0.61ZM262.75-15.16L262.75-15.16 270.71-15.16Q271.95-15.16 271.95-16.31L271.95-16.31Q271.95-18.04 270.87-19.23 269.78-20.41 267.61-20.41L267.61-20.41Q265.24-20.41 264.13-18.9 263.02-17.38 262.75-15.16ZM292.19-22.17L292.19-20.36 292.29-20.36Q294.12-25.44 298.88-25.44L298.88-25.44Q299.49-25.44 299.88-25.38 300.27-25.32 300.42-25.27L300.42-25.27Q300.78-25.15 300.78-24.71L300.78-24.71 300.78-18.82Q300.78-18.07 299.9-18.41L299.9-18.41Q299.61-18.53 299.06-18.66 298.51-18.8 297.54-18.8L297.54-18.8Q295.02-18.8 293.61-16.96 292.19-15.11 292.19-11.94L292.19-11.94 292.19-1.29Q292.19-0.56 291.88-0.28 291.58 0 290.85 0L290.85 0 285.82 0Q285.08 0 284.78-0.28 284.47-0.56 284.47-1.29L284.47-1.29 284.47-21.75Q284.47-22.34 284.72-22.66L284.72-22.66Q285.23-23.34 285.95-24.05 286.67-24.76 287.72-25.56L287.72-25.56Q287.92-25.71 288.11-25.76 288.31-25.81 288.45-25.81L288.45-25.81Q288.8-25.81 289.14-25.56L289.14-25.56Q291.16-23.97 291.97-22.85L291.97-22.85Q292.19-22.56 292.19-22.17L292.19-22.17ZM324.66-14.01L324.85-14.01Q325.19-15.33 325.6-16.61 326-17.9 326.59-19.48L326.59-19.48Q327.1-20.9 327.83-22.74 328.56-24.58 329.38-26.49 330.2-28.39 330.98-30.03 331.76-31.67 332.4-32.64L332.4-32.64Q333.18-33.84 334.09-34.42 335.01-35.01 336.79-35.01L336.79-35.01 339.99-35.01Q341.26-35.01 342.13-34.63 342.99-34.25 343.36-32.84L343.36-32.84Q343.63-31.79 343.87-29.76 344.12-27.73 344.29-24.15 344.46-20.56 344.56-14.93 344.65-9.3 344.65-1.03L344.65-1.03Q344.65-0.59 344.36-0.29 344.07 0 343.65 0L343.65 0 338.09 0Q337.67 0 337.38-0.29 337.08-0.59 337.08-1.05L337.08-1.05Q337.08-7.5 337.08-11.99 337.08-16.48 337.06-19.43 337.04-22.39 337-24.13 336.96-25.88 336.89-26.83L336.89-26.83 336.74-26.83Q335.45-23.85 333.98-20.2 332.52-16.55 331.13-12.68 329.74-8.81 328.64-5.13L328.64-5.13Q328.32-4.03 327.84-3.6 327.37-3.17 325.68-3.17L325.68-3.17 322.88-3.17Q321.43-3.17 320.96-3.54 320.48-3.91 320.14-5.13L320.14-5.13Q319.34-7.91 318.36-11.01 317.38-14.11 316.34-17.1 315.31-20.09 314.34-22.62 313.38-25.15 312.62-26.83L312.62-26.83 312.48-26.83Q312.28-23.95 312.13-19.82 311.99-15.7 311.9-10.86 311.82-6.03 311.79-1L311.79-1Q311.79-0.56 311.5-0.28 311.21 0 310.79 0L310.79 0 305.79 0Q305.37 0 305.08-0.29 304.78-0.59 304.78-1.05L304.78-1.05Q304.81-14.06 305.31-21.83 305.81-29.59 306.4-32.23L306.4-32.23Q306.79-33.96 307.78-34.48 308.76-35.01 310.03-35.01L310.03-35.01 313.99-35.01Q315.33-35.01 315.95-34.53 316.58-34.06 317.48-32.69L317.48-32.69Q318.02-31.88 318.76-30.27 319.51-28.66 320.31-26.7 321.12-24.73 321.84-22.81 322.56-20.9 323.02-19.48L323.02-19.48Q323.51-18.04 323.93-16.69 324.34-15.33 324.66-14.01L324.66-14.01ZM358.08 0.61L358.08 0.61Q354.49 0.61 352.38-1.4 350.27-3.42 350.27-6.96L350.27-6.96Q350.27-8.79 350.94-10.36 351.61-11.94 353.28-13.15 354.95-14.36 357.97-15.09 360.98-15.82 365.67-15.94L365.67-15.94Q365.67-18.16 364.56-19.14 363.45-20.12 361.23-20.12L361.23-20.12Q359.23-20.12 357.96-19.43 356.69-18.75 356.37-18.51L356.37-18.51Q356.03-18.21 355.54-18.29L355.54-18.29Q354.88-18.38 354.14-18.63 353.39-18.87 352.54-19.19L352.54-19.19Q352.41-19.24 352.27-19.35 352.12-19.46 352.1-19.68L352.1-19.68Q352.1-19.8 352.12-19.98 352.15-20.17 352.24-20.65L352.24-20.65Q352.34-21.14 352.54-21.86 352.73-22.58 352.9-22.97L352.9-22.97Q353.12-23.39 353.63-23.75L353.63-23.75Q354.05-24.1 356.15-24.85 358.25-25.61 362.23-25.61L362.23-25.61Q373.19-25.61 373.19-14.94L373.19-14.94 373.19-1.12Q373.19-0.66 372.93-0.33 372.68 0 372.07 0L372.07 0 368.41 0Q368.01 0 367.71-0.11 367.4-0.22 367.14-0.54L367.14-0.54 365.62-2.49 365.45-2.49Q364.33-0.85 362.44-0.12 360.54 0.61 358.08 0.61ZM360.76-5.05L360.76-5.05Q363.01-5.05 364.16-6.2 365.3-7.35 365.62-8.57L365.62-8.57 365.62-11.28Q362.23-11.28 360.53-10.75 358.83-10.23 358.27-9.39 357.71-8.54 357.71-7.57L357.71-7.57Q357.71-6.15 358.59-5.6 359.47-5.05 360.76-5.05ZM403.95-15.55L403.95-15.55 403.95-1.29Q403.95-0.56 403.64-0.28 403.34 0 402.61 0L402.61 0 397.58 0Q396.85 0 396.54-0.28 396.23-0.56 396.23-1.29L396.23-1.29 396.23-14.28Q396.23-16.94 395.11-18.16 393.99-19.38 392.06-19.38L392.06-19.38Q390.13-19.38 389.09-18.55 388.06-17.72 387.49-16.46L387.49-16.46 387.49-1.29Q387.49-0.56 387.19-0.28 386.88 0 386.15 0L386.15 0 381.12 0Q380.39 0 380.08-0.28 379.78-0.56 379.78-1.29L379.78-1.29 379.78-21.75Q379.78-22.34 380.02-22.66L380.02-22.66Q380.54-23.34 381.26-24.05 381.98-24.76 383.03-25.56L383.03-25.56Q383.34-25.81 383.64-25.81L383.64-25.81Q383.91-25.81 384.25-25.56L384.25-25.56Q385.27-24.76 386.01-24.02 386.74-23.29 387.3-22.51L387.3-22.51 387.42-22.51Q387.84-23.05 388.67-23.77 389.5-24.49 391-25.05 392.5-25.61 394.84-25.61L394.84-25.61Q397.14-25.61 399.21-24.68 401.29-23.75 402.62-21.56 403.95-19.36 403.95-15.55ZM417.01 0.61L417.01 0.61Q413.42 0.61 411.31-1.4 409.2-3.42 409.2-6.96L409.2-6.96Q409.2-8.79 409.87-10.36 410.54-11.94 412.21-13.15 413.88-14.36 416.9-15.09 419.91-15.82 424.6-15.94L424.6-15.94Q424.6-18.16 423.49-19.14 422.38-20.12 420.16-20.12L420.16-20.12Q418.16-20.12 416.89-19.43 415.62-18.75 415.3-18.51L415.3-18.51Q414.96-18.21 414.47-18.29L414.47-18.29Q413.81-18.38 413.07-18.63 412.32-18.87 411.47-19.19L411.47-19.19Q411.34-19.24 411.2-19.35 411.05-19.46 411.03-19.68L411.03-19.68Q411.03-19.8 411.05-19.98 411.08-20.17 411.17-20.65L411.17-20.65Q411.27-21.14 411.47-21.86 411.66-22.58 411.83-22.97L411.83-22.97Q412.05-23.39 412.57-23.75L412.57-23.75Q412.98-24.1 415.08-24.85 417.18-25.61 421.16-25.61L421.16-25.61Q432.12-25.61 432.12-14.94L432.12-14.94 432.12-1.12Q432.12-0.66 431.86-0.33 431.61 0 431 0L431 0 427.34 0Q426.95 0 426.64-0.11 426.33-0.22 426.07-0.54L426.07-0.54 424.55-2.49 424.38-2.49Q423.26-0.85 421.37-0.12 419.47 0.61 417.01 0.61ZM419.69-5.05L419.69-5.05Q421.94-5.05 423.09-6.2 424.24-7.35 424.55-8.57L424.55-8.57 424.55-11.28Q421.16-11.28 419.46-10.75 417.77-10.23 417.2-9.39 416.64-8.54 416.64-7.57L416.64-7.57Q416.64-6.15 417.52-5.6 418.4-5.05 419.69-5.05ZM462.88-15.55L462.88-15.55 462.88-1.29Q462.88-0.56 462.57-0.28 462.27 0 461.54 0L461.54 0 456.51 0Q455.78 0 455.47-0.28 455.17-0.56 455.17-1.29L455.17-1.29 455.17-14.28Q455.17-16.94 454.04-18.16 452.92-19.38 450.99-19.38L450.99-19.38Q449.06-19.38 448.02-18.55 446.99-17.72 446.42-16.46L446.42-16.46 446.42-1.29Q446.42-0.56 446.12-0.28 445.81 0 445.08 0L445.08 0 440.05 0Q439.32 0 439.02-0.28 438.71-0.56 438.71-1.29L438.71-1.29 438.71-21.75Q438.71-22.34 438.95-22.66L438.95-22.66Q439.47-23.34 440.19-24.05 440.91-24.76 441.96-25.56L441.96-25.56Q442.27-25.81 442.57-25.81L442.57-25.81Q442.84-25.81 443.18-25.56L443.18-25.56Q444.2-24.76 444.94-24.02 445.67-23.29 446.23-22.51L446.23-22.51 446.35-22.51Q446.77-23.05 447.6-23.77 448.43-24.49 449.93-25.05 451.43-25.61 453.77-25.61L453.77-25.61Q456.07-25.61 458.14-24.68 460.22-23.75 461.55-21.56 462.88-19.36 462.88-15.55Z" opacity="1" transform="matrix(1,0,0,1,0,0)" fill="#219ebc" class="slogan-text-1" data-fill-palette-color="secondary" id="text-1"></path></svg></g></svg></g></svg></g></svg></g><g></g></svg></g><defs></defs></svg><rect width="395.52" height="108.07742459468936" fill="none" stroke="none" visibility="hidden"></rect></g></svg></g></svg>